<svg width="25" height="30" viewBox="0 0 25 30" fill="none" xmlns="http://www.w3.org/2000/svg">
<path d="M3.75 18.75V16.5H5.625V18.75H3.75Z" fill="white"/>
<path fill-rule="evenodd" clip-rule="evenodd" d="M17.5 30H2.5C1.11929 30 0 28.6568 0 27V3C0 1.34314 1.11929 0 2.5 0H17.5C18.8807 0 20 1.34314 20 3V27C20 28.6568 18.8807 30 17.5 30ZM8.75 6.75C8.75 6.33577 9.02981 6 9.375 6H16.875C17.2202 6 17.5 6.33577 17.5 6.75C17.5 7.16423 17.2202 7.5 16.875 7.5H9.375C9.02981 7.5 8.75 7.16423 8.75 6.75ZM9.375 9C9.02981 9 8.75 9.33578 8.75 9.75C8.75 10.1642 9.02981 10.5 9.375 10.5H16.875C17.2202 10.5 17.5 10.1642 17.5 9.75C17.5 9.33578 17.2202 9 16.875 9H9.375ZM7.31694 6.21968C7.561 6.51255 7.561 6.98745 7.31694 7.28032L4.375 10.8106L2.68306 8.78032C2.43898 8.48745 2.43898 8.01255 2.68306 7.71968C2.92714 7.4268 3.32286 7.4268 3.56694 7.71968L4.375 8.68935L6.43306 6.21968C6.67712 5.9268 7.07288 5.9268 7.31694 6.21968ZM9.375 15C9.02981 15 8.75 15.3358 8.75 15.75C8.75 16.1642 9.02981 16.5 9.375 16.5H16.875C17.2202 16.5 17.5 16.1642 17.5 15.75C17.5 15.3358 17.2202 15 16.875 15H9.375ZM8.75 18.75C8.75 18.3358 9.02981 18 9.375 18H16.875C17.2202 18 17.5 18.3358 17.5 18.75C17.5 19.1642 17.2202 19.5 16.875 19.5H9.375C9.02981 19.5 8.75 19.1642 8.75 18.75ZM6.25 15H3.125C2.77982 15 2.5 15.3358 2.5 15.75V19.5C2.5 19.9142 2.77982 20.25 3.125 20.25H6.25C6.59519 20.25 6.875 19.9142 6.875 19.5V15.75C6.875 15.3358 6.59519 15 6.25 15Z" fill="white"/>
<path fill-rule="evenodd" clip-rule="evenodd" d="M25 27L23.125 30L21.25 27V13.5H25V27Z" fill="white"/>
<path fill-rule="evenodd" clip-rule="evenodd" d="M22.5 8.25003H23.75C24.4404 8.25003 25 8.92158 25 9.75003V12.75H21.25V9.75003C21.25 8.92158 21.8096 8.25003 22.5 8.25003Z" fill="white"/>
</svg>
