<svg width="30" height="30" viewBox="0 0 30 30" fill="none" xmlns="http://www.w3.org/2000/svg">
<rect width="30" height="30" rx="5" fill="#002F51"/>
<path d="M5.00002 23.125C5.00002 24.1601 5.95984 25 7.14287 25H22.8572C24.0402 25 25 24.1601 25 23.125V12.5H5.00002V23.125ZM19.2857 15.4687C19.2857 15.2109 19.5268 15 19.8214 15H21.6072C21.9018 15 22.1429 15.2109 22.1429 15.4687V17.0312C22.1429 17.289 21.9018 17.5 21.6072 17.5H19.8214C19.5268 17.5 19.2857 17.289 19.2857 17.0312V15.4687ZM19.2857 20.4687C19.2857 20.2109 19.5268 20 19.8214 20H21.6072C21.9018 20 22.1429 20.2109 22.1429 20.4687V22.0312C22.1429 22.289 21.9018 22.5 21.6072 22.5H19.8214C19.5268 22.5 19.2857 22.289 19.2857 22.0312V20.4687ZM13.5714 15.4687C13.5714 15.2109 13.8125 15 14.1072 15H15.8929C16.1875 15 16.4286 15.2109 16.4286 15.4687V17.0312C16.4286 17.289 16.1875 17.5 15.8929 17.5H14.1072C13.8125 17.5 13.5714 17.289 13.5714 17.0312V15.4687ZM13.5714 20.4687C13.5714 20.2109 13.8125 20 14.1072 20H15.8929C16.1875 20 16.4286 20.2109 16.4286 20.4687V22.0312C16.4286 22.289 16.1875 22.5 15.8929 22.5H14.1072C13.8125 22.5 13.5714 22.289 13.5714 22.0312V20.4687ZM7.85716 15.4687C7.85716 15.2109 8.09823 15 8.39287 15H10.1786C10.4732 15 10.7143 15.2109 10.7143 15.4687V17.0312C10.7143 17.289 10.4732 17.5 10.1786 17.5H8.39287C8.09823 17.5 7.85716 17.289 7.85716 17.0312V15.4687ZM7.85716 20.4687C7.85716 20.2109 8.09823 20 8.39287 20H10.1786C10.4732 20 10.7143 20.2109 10.7143 20.4687V22.0312C10.7143 22.289 10.4732 22.5 10.1786 22.5H8.39287C8.09823 22.5 7.85716 22.289 7.85716 22.0312V20.4687ZM22.8572 7.49998H20.7143V5.62498C20.7143 5.28123 20.3929 4.99998 20 4.99998H18.5714C18.1786 4.99998 17.8572 5.28123 17.8572 5.62498V7.49998H12.1429V5.62498C12.1429 5.28123 11.8214 4.99998 11.4286 4.99998H10C9.60716 4.99998 9.28573 5.28123 9.28573 5.62498V7.49998H7.14287C5.95984 7.49998 5.00002 8.33983 5.00002 9.37498V11.25H25V9.37498C25 8.33983 24.0402 7.49998 22.8572 7.49998Z" fill="white"/>
</svg>
