<svg width="15" height="15" viewBox="0 0 15 15" fill="none" xmlns="http://www.w3.org/2000/svg">
<path d="M6.42857 0C5.25 0 4.28571 0.84375 4.28571 1.875H2.14286C0.964286 1.875 0 2.71875 0 3.75H15C15 2.71875 14.0357 1.875 12.8571 1.875H10.7143C10.7143 0.84375 9.75 0 8.57143 0H6.42857ZM2.14286 5.625V14.6438C2.14286 14.85 2.31429 15 2.55 15H12.4714C12.7071 15 12.8786 14.85 12.8786 14.6438V5.625H10.7357V12.1875C10.7357 12.7125 10.2643 13.125 9.66429 13.125C9.06429 13.125 8.59286 12.7125 8.59286 12.1875V5.625H6.45V12.1875C6.45 12.7125 5.97857 13.125 5.37857 13.125C4.77857 13.125 4.30714 12.7125 4.30714 12.1875V5.625H2.16429H2.14286Z" fill="#FF0000"/>
</svg>
