<svg width="30" height="30" viewBox="0 0 30 30" fill="none" xmlns="http://www.w3.org/2000/svg">
<path d="M0 27.1875C0 28.7402 1.43973 30 3.21429 30H26.7857C28.5603 30 30 28.7402 30 27.1875V11.25H0V27.1875ZM21.4286 15.7031C21.4286 15.3164 21.7902 15 22.2321 15H24.9107C25.3527 15 25.7143 15.3164 25.7143 15.7031V18.0469C25.7143 18.4336 25.3527 18.75 24.9107 18.75H22.2321C21.7902 18.75 21.4286 18.4336 21.4286 18.0469V15.7031ZM21.4286 23.2031C21.4286 22.8164 21.7902 22.5 22.2321 22.5H24.9107C25.3527 22.5 25.7143 22.8164 25.7143 23.2031V25.5469C25.7143 25.9336 25.3527 26.25 24.9107 26.25H22.2321C21.7902 26.25 21.4286 25.9336 21.4286 25.5469V23.2031ZM12.8571 15.7031C12.8571 15.3164 13.2188 15 13.6607 15H16.3393C16.7812 15 17.1429 15.3164 17.1429 15.7031V18.0469C17.1429 18.4336 16.7812 18.75 16.3393 18.75H13.6607C13.2188 18.75 12.8571 18.4336 12.8571 18.0469V15.7031ZM12.8571 23.2031C12.8571 22.8164 13.2188 22.5 13.6607 22.5H16.3393C16.7812 22.5 17.1429 22.8164 17.1429 23.2031V25.5469C17.1429 25.9336 16.7812 26.25 16.3393 26.25H13.6607C13.2188 26.25 12.8571 25.9336 12.8571 25.5469V23.2031ZM4.28571 15.7031C4.28571 15.3164 4.64732 15 5.08929 15H7.76786C8.20982 15 8.57143 15.3164 8.57143 15.7031V18.0469C8.57143 18.4336 8.20982 18.75 7.76786 18.75H5.08929C4.64732 18.75 4.28571 18.4336 4.28571 18.0469V15.7031ZM4.28571 23.2031C4.28571 22.8164 4.64732 22.5 5.08929 22.5H7.76786C8.20982 22.5 8.57143 22.8164 8.57143 23.2031V25.5469C8.57143 25.9336 8.20982 26.25 7.76786 26.25H5.08929C4.64732 26.25 4.28571 25.9336 4.28571 25.5469V23.2031ZM26.7857 3.75H23.5714V0.9375C23.5714 0.421875 23.0893 0 22.5 0H20.3571C19.7679 0 19.2857 0.421875 19.2857 0.9375V3.75H10.7143V0.9375C10.7143 0.421875 10.2321 0 9.64286 0H7.5C6.91071 0 6.42857 0.421875 6.42857 0.9375V3.75H3.21429C1.43973 3.75 0 5.00977 0 6.5625V9.375H30V6.5625C30 5.00977 28.5603 3.75 26.7857 3.75Z" fill="white"/>
</svg>
